<svg version="1" xmlns="http://www.w3.org/2000/svg" width="682.667" height="682.667" viewBox="0 0 512.000000 512.000000"><path d="M280 1.1c-1.4.6-3.8 2.2-5.4 3.7-3.3 3.1-8.6 13.6-8.6 16.9 0 1.3-.3 2.3-.6 2.3-.5 0-23-11.7-24.9-13-.5-.4-3.3-1.6-6-2.8-7.2-3-36.6-5.7-44.2-4.2-7.9 1.7-18.9 5.6-22.1 7.9-1.5 1-7.9 8-14.2 15.4l-11.5 13.6-3.1-9.2C132.3 10.6 131 9.8 99.7 7.5 80.1 6 77.9 6 74.5 7.5 68.1 10.1 45.8 27.4 42.8 32c-1.4 2.2-5.1 10-8.2 17.3l-5.7 13.2-9.7 6.5C6.1 77.8 5.7 78.6 3.5 103.7c-.9 10.6-1.3 20.7-1 22.5.7 3.1 5.3 15.3 18.2 48.5 3 7.9 6.5 15.8 7.7 17.6l2.3 3.3L20 209.2c-9.3 11.8-11 14.5-12.3 20-2.6 10.1-3.7 25.4-4 53.8-.2 24.1 0 27.4 2 36.4 1.6 7.2 3.1 11.3 5.7 15.2 2.5 3.8 3.6 6.5 3.6 9.1 0 6.2 2.9 9.4 17.9 19.8 7.7 5.3 14.1 10.2 14.1 10.7s-2.7 4.4-6 8.7c-7.7 9.9-8.7 12.5-9.5 24.8l-.7 10.2-5.3 2.6c-6.2 3-19 16.7-23 24.5-2.4 4.7-2.5 5.8-2.5 22v17.1l3.5 7.4c3.9 8.1 6.7 10.9 12.9 12.7 2.2.6 5.6 2.4 7.4 4 1.8 1.5 4.2 3 5.5 3.3 1.2.3 11.6.4 23.2.3 19.6-.3 21.4-.5 26.3-2.7 4.8-2.2 9.6-6.5 12-10.8 1-1.6 1.2-1.6 2.9-.2 1 .9 6.3 4 11.8 6.9 5.5 2.9 10.4 5.6 10.9 6.1.6.5 6.3.9 12.7.9h11.8l10-11.4 10-11.4 4.7 2.4c2.6 1.3 5.8 2.4 7.2 2.4 4.9 0 38.5-6.1 41.2-7.5 5.6-2.9 8.5.4 6 7-1 2.5-1 2.5 1.9 1 2.8-1.4 3-1.4 7.2 2.9 3.3 3.1 7.4 5.6 15.9 9.2l11.5 4.9 32.2.3 32.3.3 14.2-11.3c7.9-6.2 16.9-13.3 20.1-15.7 3.2-2.4 6.8-5.7 8-7.3l2.2-2.8 18 14.7c21.6 17.6 23.9 18.8 34.4 17.9 4.2-.4 15.3-1.4 24.6-2.2 9.4-.8 23.5-2.6 31.4-4 20.7-3.7 22.5-5.1 32.5-25.1L512 465v-85.5l-6.3-11.5c-10.9-19.8-12.8-23.2-19.5-34.9-5.2-9-6.2-11.5-5.1-12.2 17.8-10.9 17.5-10.6 22-25.7 7.5-24.9 7.3-23.7 5.6-43l-1.5-17.4-5.2-10.2c-12.6-24.2-16.3-31.2-23.9-43.9-4.5-7.5-8.1-14-8.1-14.5s2.6-2 5.8-3.3c3.1-1.3 7.7-3.5 10.2-4.9 2.5-1.4 6.2-3.4 8.4-4.5 6.3-3.3 12.3-9.2 14-13.8 2.5-6.6 2.8-51.1.4-58.7-3.9-12.4-7.8-25.9-7.8-27 0-.6-.9-3.3-2.1-6-1.7-4-5.5-8-19.8-21.2-9.7-9-19.3-17.8-21.3-19.5-6.1-5.2-9.6-5.7-30.2-3.9-10 .9-21.2 1.9-25.1 2.2-8.5.8-13.7 2.9-21.6 8.9-5.4 4.2-6.2 4.6-7.7 3.2-2.9-2.5-7.9-4.7-17-7.3-4.8-1.4-13.4-4-19.2-5.8-10.2-3.3-11.1-3.4-32.5-4-14.1-.3-22.9-.2-24.5.5zm53.2 35.5c6.8 2 12.5 3.8 12.6 4 .2.1-1.5 1.9-3.8 4-5.2 4.7-7 8.2-7 13.6 0 11.1 12.2 18.4 22.2 13.2 1.7-.9 11.3-7.8 21.2-15.3 26.7-20.2 23.6-18.7 40.6-20 8-.7 15.9-1.4 17.7-1.7 3-.4 4.2.4 16 11.2 7 6.4 13.8 12.6 15 13.8 1.6 1.5 3.7 6.9 6.8 17.8 4.4 15.5 4.5 15.9 4.5 30.8 0 8.5-.5 16-1 17.1-1.4 2.4-9.3 6.5-25.7 12.9-7 2.8-16 7.1-19.9 9.6-4 2.4-7.4 4.4-7.6 4.4-.3 0-2.7-3.3-5.3-7.3-27.8-41.9-83.2-57.1-128-35.2-15.1 7.4-19.3 10.2-35.1 23.1-8.4 6.8-15.5 12.4-15.7 12.4-1.1 0-1.6-13-.6-15.3 2.5-5.5-4.3-11.7-16.6-15.3-12.9-3.7-32.9-1.8-43.2 4.2-4.6 2.7-7.9 7.6-6.8 10.2.4 1 .9 3 1.1 4.7.2 1.6 1.8 11.5 3.5 22 2.7 16.5 3.5 19.8 6.5 25.2 1.9 3.4 3.4 6.4 3.4 6.7 0 .2-12.5 10.6-27.8 23-29.7 23.9-37.7 32-48 47.9-15.9 24.8-21.5 55.3-15.5 85 .8 4.3 1.4 7.9 1.2 8.1-1.4 1-18.3 5.5-19 5-.5-.3-.9-1.7-.9-3.2 0-7-7.3-13.2-15.5-13.2-4.8 0-5.2-.2-9-4.9-2.2-2.6-6.7-8-10.1-11.8-5.9-6.8-6.1-7.3-7.4-15.3-1.5-9.8-.8-49.6 1.1-62.5 1.1-7.7 1.4-8.3 8.2-17 3.9-5 7.5-9.3 8.1-9.7.6-.4 4.7-2 9.1-3.4 12.8-4.3 17.5-8.9 17.5-17.6 0-5.2-2.7-10-7.2-12.9-2.7-1.7-4.5-2-10-1.6l-6.8.4v-2.8c0-1.5-5-15.7-11.1-31.6-12.3-32-11.3-27.1-9.3-47.6l.6-5.8 7.4-4.9c4-2.8 8.6-6.6 10.1-8.5 1.5-1.9 5.5-9.9 8.8-17.7l6.1-14.3 8.3-6.3c8.2-6.2 8.4-6.3 13.5-5.8 2.8.3 8.1.8 11.8 1.1l6.7.6 2.7 8.2c4.4 13.3 8 20.5 15.4 30.3 8 10.5 11.6 13.9 16.1 14.9 9.4 2.1 18.9-5.7 18.9-15.5 0-1.7-.9-4.9-2.1-7.2-1.7-3.3-1.8-4.2-.7-4.8 6.1-3.6 9.5-6.7 17.8-16.5 8.7-10.4 9.9-11.5 14.8-13 4.7-1.4 6.9-1.5 17.5-.5 13.3 1.3 13.9 1.5 39.2 15.3l10 5.4 6.5 10.6c3.6 5.8 7.4 11.5 8.5 12.7 6.9 7.5 19.1 6.4 24.6-2.2 1.5-2.6 1.9-4.5 1.6-8.8-.3-4.7-1.4-7.2-7.5-17.5l-7.2-12 3.3-1.6c1.7-.9 4.1-2.7 5.2-3.9 1.9-2.2 2.5-2.2 14.7-1.7 10.8.5 14.5 1.1 25 4.3zM220.3 119c14.2 4.4 14.2 13.6 0 18-15.8 4.9-37.3-.3-37.3-9s21.5-13.9 37.3-9zm228.9 75.2c4.7 7.9 11.6 20.1 15.3 27.3 3.7 7.1 8 15.3 9.5 18.2 2.4 4.4 2.9 6.8 3.4 17 .7 11.5.6 12.1-2.6 22.3-3.4 10.4-3.4 10.4-8.6 13.5-4 2.5-7.2 3.4-14.6 4.4-9.5 1.2-28.5 5.9-32.3 8-9.3 4.9-10.7 18-2.8 25 5 4.4 9.1 4.8 20.7 2.1 6-1.5 10.2-2 10.7-1.4 1.1 1.1 12.3 20.7 25.1 43.9l9.5 17 .8 29.1.8 29.2-4.6 9.3c-2.6 5.2-4.9 9.5-5 9.7-.8.9-25.4 4.3-40 5.5l-17 1.5-3.6-2.7c-2-1.4-9.5-7.3-16.7-13.1-12.8-10.2-13.2-10.7-17.8-19.5-6.9-13.4-10.5-16.5-18.6-16.5-11.8 0-18.2 12-12.8 23.9 2.4 5.2 2.4 5.1.5 5.1-3.2 0-9.4 4.2-26.9 17.9L303.8 485H276.5l-12.6-5.1-12.7-5.2-3.3-7c-4.9-10.1-7.8-13.7-15.3-19.1-10.7-7.7-16.8-9.2-23.9-6.2-4.5 1.9-6.8 4.8-8.2 10.3l-1.2 4.8-5.9 1.2c-3.2.7-8.4 1.5-11.5 1.9l-5.6.6-.8-14.6c-.4-8.1-.5-15-.1-15.3.3-.3 3.5.2 7.1 1.1 44.8 11.2 93.8-6.8 121.1-44.5 12.5-17.4 82.8-98.1 90.7-104.2 24.7-19.1 38.6-43.4 41.7-73.1.8-7 .8-12.8.1-19-.6-5-1-9.1-.8-9.1 1-.8 4.3-2.4 4.8-2.5.4 0 4.5 6.4 9.1 14.2zm-222.7 39.6c33.1 9.1 57.2 33.5 66.1 66.8 1.4 5.2 1.8 10.5 1.8 21.4 0 10.9-.4 16.2-1.8 21.4-8.9 33.6-33.6 58.3-67.2 67.2-5.2 1.4-10.5 1.8-21.4 1.8-10.9 0-16.2-.4-21.4-1.8-33.6-8.9-58.3-33.6-67.2-67.2-2.6-9.7-2.6-33.1 0-42.8 9-33.6 35.1-59.6 67.3-67 10.6-2.4 11.1-2.5 24.3-2.1 8.3.2 14.9 1 19.5 2.3zM114 384.8c.3.4 2.5 3.3 4.9 6.4 2.3 3.1 7.6 8.9 11.7 12.8l7.5 7.1 2.5 10.7c1.5 6.3 2.9 16.2 3.4 24.1l.9 13.4-9.1 10.4c-5.1 5.7-9.3 10.3-9.4 10.3-.1 0-4.5-2.3-9.8-5-5.3-2.8-10.9-5-12.5-5h-2.8l-.5-8.2c-.4-7.4-1-9.6-5.7-20.1-8.7-19.2-11.7-22-25.8-24.7l-6.3-1.3v-4.6c0-4.1.7-5.5 5.8-12.1l5.7-7.4 14.9-4.7c13-4 15.4-4.5 19.4-3.7 2.5.4 4.9 1.2 5.2 1.6zm-51.9 62.8c.5.3 2.3 3.2 3.9 6.4 3.8 7.4 4.1 15 .9 21.3-1.2 2.3-2.3 4.3-2.4 4.5-.2.2-3.6 1-7.7 1.8-4 .8-8.3 1.9-9.6 2.4-1.7.7-3.1.6-5.2-.5-1.6-.8-4-1.5-5.4-1.5-2 0-2.9-1.1-5.6-6.7-2.9-6.3-3-7.1-1.9-11.1 1.1-3.9 7.3-12.4 10.9-14.7 4-2.7 7.8-3.4 14.4-3 3.8.3 7.3.8 7.7 1.1z"/><path d="M197.9 246.7c-1.9.5-4.9 5.4-4.9 8.1 0 1.1.9 3 1.9 4.3 1.7 2.2 3 2.4 12.8 3 12.1.8 20.3 3.3 29.6 9.2 6.4 4.1 14.6 12.2 18.7 18.6 4.1 6.4 4.7 7 7.7 7.7 3.6.9 7.3-1.3 9-5.3 1.2-3.1 1.1-3.5-3.7-10.6-9.4-14.1-24.5-25.9-39.7-31.1-10.8-3.7-25.5-5.5-31.4-3.9zM160.8 259.2c-6.7 4.7-16.6 14.7-21 21.2-8.3 12-12.4 24.7-13.5 40.9-.5 8.4-.4 9.7.9 9.2.8-.3 2.1.1 2.8 1 1.9 2.3 7.3 1.9 9.7-.8 1.7-1.8 2.2-3.9 2.5-11.7.4-7.5 1.2-11.2 3.7-17.5 3.7-9.6 11.5-20.2 18.5-25.5 8.2-6.2 10.6-8.7 10.6-11.3 0-3.3-2.8-6.5-6.7-7.6-2.8-.8-3.8-.5-7.5 2.1zM200 278.6c-7.8 1.2-13 2.7-13 3.8 0 .7-.9 2.1-2 3.1-2.8 2.5-2.6 7.6.3 10.3 2.9 2.7 6.1 2.8 9.4.2 3.2-2.5 13.9-2.8 20.3-.5 5.9 2.1 8.3 1.9 10.9-.9 1.7-1.8 2.1-3.3 2-6.5-.3-4-.4-4.2-5.8-6.2-5-1.9-15.9-4.1-18.6-3.7-.5 0-2.1.2-3.5.4zM235 308c-1.8 1.8-1.9 2.9-1.3 11.3.4 7.4.2 10.5-1.1 14.2-2.1 6.4-2 9.1.4 11.5 4.1 4.1 11.4 1.3 14-5.4 3.8-10.2 3-27.3-1.6-31.4-3.1-2.7-7.7-2.9-10.4-.2zM161.5 312.6c-3.3 3.6-4 8.3-2.6 17.3 3.7 23.7 22.7 40.1 46.7 40.1 8.6 0 13.4-7.8 7.9-13-2-1.9-4-2.4-10.8-3-13.6-1.1-22.3-7.2-26.8-19-1-2.8-1.9-6.6-1.9-8.5 0-1.9-.5-3.5-1-3.5-.7 0-.7-.6 0-1.9 4.2-8-5.4-15.1-11.5-8.5zM199 313.7c-9.5 4.9-8.3 18.3 2 21.4 5.3 1.6 10.7-1 13.4-6.5 1.7-3.6 1.8-4.3.5-7.9-2.5-7.1-9.6-10.2-15.9-7zM264.3 343.5c-1.2.8-2.7 3.2-3.4 5.3-1.8 5.5-9.4 16.6-14.6 21.2-11.2 9.8-23.5 14.9-37.8 15.7-9.4.6-13.8 2-15.5 5.2-1.6 3-1.2 5.6 1.2 8.6l2.2 2.8 9.8-.7c20.8-1.4 36.7-7.9 50-20.4 8.5-8.1 14.5-16 18.4-24.7 2.3-5 2.4-5.6 1-8.9-2.2-5.4-7-7.1-11.3-4.1zM138 353c-1.1 1.1-2 2.9-2 4.1 0 1.2-.4 1.7-1.1 1.3-.7-.4-.6.2.1 1.7 7.3 13.9 26.4 31.9 33.7 31.9 4.2 0 7.3-3 7.3-7.1 0-3.4-2.1-5.8-11.1-12.5-3-2.2-7.6-7-10.1-10.5-2.6-3.5-5.6-7.4-6.7-8.7-2.6-2.8-7.4-2.9-10.1-.2z"/></svg>